<svg xmlns="http://www.w3.org/2000/svg" width="512" height="512" viewBox="0 0 512 512">
  <g fill="none" fill-rule="evenodd">
    <circle cx="256" cy="256" r="256" fill="#EB5E40"/>
    <g fill="#000000" fill-rule="nonzero" transform="translate(152 119)">
      <path d="M197.661775,0.210110294 L10.7140959,0.210110294 C4.9495207,0.210110294 0.271024912,4.89393382 0.271024912,10.6650735 L0.271024912,89.4076746 C0.271024912,92.728171 1.84584001,95.847932 4.51508895,97.821829 L33.5718896,119.279596 L33.5718896,263.913557 C33.5718896,269.684697 38.2503853,274.36852 44.0149605,274.36852 L164.36091,274.36852 C170.125485,274.36852 174.803981,269.684697 174.803981,263.909375 L174.803981,119.279596 L203.860782,97.8176471 C206.530031,95.847932 208.104846,92.723989 208.104846,89.4034926 L208.104846,10.6650735 C208.104846,4.88975184 203.42635,0.210110294 197.661775,0.210110294 Z M153.917839,253.458594 L54.4580314,253.458594 L54.4580314,124.461075 L153.917839,124.461075 L153.917839,253.458594 Z M187.218704,84.1258272 L160.923051,103.542785 L47.4528195,103.542785 L21.1571668,84.1258272 L21.1571668,21.1200368 L60.6403294,21.1200368 L60.6403294,52.7107537 C60.6403294,58.4860754 65.3188252,63.1657169 71.0834004,63.1657169 C76.8521528,63.1657169 81.5264713,58.4860754 81.5264713,52.7107537 L81.5264713,21.1200368 L126.853576,21.1200368 L126.853576,52.7107537 C126.853576,58.4860754 131.532072,63.1657169 137.296647,63.1657169 C143.061223,63.1657169 147.739718,58.4860754 147.739718,52.7107537 L147.739718,21.1200368 L187.222881,21.1200368 L187.218704,84.1258272 L187.218704,84.1258272 Z"/>
      <path d="M82.3034358,232.661581 L126.068258,232.661581 C131.832833,232.661581 136.511329,227.977757 136.511329,222.206618 L136.511329,174.594715 C136.511329,156.750184 122.012169,142.234513 104.187935,142.234513 C86.3637018,142.234513 71.8645421,156.750184 71.8645421,174.594715 L71.8645421,222.206618 C71.8603649,227.981939 76.5388607,232.661581 82.3034358,232.661581 Z M92.7465068,174.594715 C92.7465068,168.279917 97.8803205,163.144439 104.183758,163.144439 C110.491373,163.144439 115.621009,168.284099 115.621009,174.594715 L115.621009,211.751654 L92.7423295,211.751654 L92.7465068,174.594715 L92.7465068,174.594715 Z"/>
    </g>
  </g>
</svg>
